<?xml version="1.0" encoding="UTF-8"?>
<svg version="1.1" xmlns="http://www.w3.org/2000/svg" width="248" height="177">
<path d="M0 0 C3.63 0 7.26 0 11 0 C11.33 7.26 11.66 14.52 12 22 C16.64826057 24.26302499 16.64826057 24.26302499 21.29907227 26.52075195 C23.27942044 27.48077559 25.25915376 28.44196659 27.23703003 29.40707397 C33.84418157 32.63098518 40.43276594 35.82776641 47.23828125 38.6171875 C48.14868164 38.99560791 49.05908203 39.37402832 49.99707031 39.76391602 C51.65633854 40.44211901 53.32605788 41.09551671 55.00683594 41.71850586 C59.45709361 43.55247233 61.47094209 45.14359976 63.52734375 49.57421875 C64.59408376 52.33120146 65 54.00788308 65 57 C65.54140625 57.2475 66.0828125 57.495 66.640625 57.75 C69.5282849 59.27988604 72.09776018 61.09150997 74.75 63 C75.73484375 63.70125 76.7196875 64.4025 77.734375 65.125 C78.48203125 65.74375 79.2296875 66.3625 80 67 C80 67.66 80 68.32 80 69 C76.7 69 73.4 69 70 69 C72.14549176 80.13939319 76.59665726 87.35173146 83.55859375 96.13769531 C85.89187224 99.15230377 88.03916413 102.28971524 90.1875 105.4375 C90.92355469 106.50871094 91.65960938 107.57992187 92.41796875 108.68359375 C92.94003906 109.44800781 93.46210937 110.21242188 94 111 C109.24492773 92.16252423 109.24492773 92.16252423 118 70 C114.7 69.67 111.4 69.34 108 69 C109.45732451 64.62802647 113.19771365 63.17566196 117.07617188 61.01953125 C120.01743013 59.1741665 121.72567423 58.01642128 122.6574707 54.56396484 C122.8555835 53.64309082 123.05369629 52.7222168 123.2578125 51.7734375 C124.91554977 46.5839234 127.2998978 44.77222375 131.92051697 42.3213501 C136.08771687 40.30846545 140.31077637 38.45105826 144.5625 36.625 C146.2834688 35.85374922 148.0028899 35.07903513 149.72070312 34.30078125 C153.00520283 32.81929991 156.2978326 31.35980649 159.60205078 29.92285156 C164.13024417 27.95301644 168.61217472 25.88980449 173.08178711 23.79052734 C175 23 175 23 177 23 C177 15.41 177 7.82 177 0 C180.96 0 184.92 0 189 0 C189 9.57 189 19.14 189 29 C179.76 33.29 170.52 37.58 161 42 C161.14824219 45.55394531 161.29648438 49.10789063 161.44921875 52.76953125 C161.52796735 56.24158607 161.57375163 59.71263924 161.61645508 63.18530273 C161.66345064 65.58466027 161.74431297 67.98361638 161.8605957 70.38061523 C162.76213214 89.65746768 162.76213214 89.65746768 158.31616211 95.03765869 C153.86577298 98.61325958 148.79713833 100.7387077 143.54446411 102.87826538 C139.59300872 104.62027632 136.14639736 106.97728521 132.6015625 109.421875 C131.26520357 110.3125207 129.92796833 111.20185301 128.58984375 112.08984375 C127.26777896 112.97589112 125.94616501 113.86261154 124.625 114.75 C98.6426899 132.19949041 98.6426899 132.19949041 92.82080078 131.76000977 C79.37258402 128.13665 66.66848502 117.24457981 55.26367188 109.44799805 C54.65209229 109.03406799 54.0405127 108.62013794 53.41040039 108.19366455 C52.17553604 107.35422925 50.94746159 106.50472018 49.72631836 105.64544678 C46.4252593 103.37990135 43.3230021 101.65674225 39.55273438 100.28735352 C35.06378639 98.55203291 30.9795919 96.92569795 28 93 C25.23470928 84.71428849 26.17884752 75.53329218 26.5 66.9375 C26.53206341 64.52157047 26.55687807 62.10553318 26.57421875 59.68945312 C26.61882108 53.78369972 26.81259082 47.90977811 27 42 C18.09 37.71 9.18 33.42 0 29 C0 19.43 0 9.86 0 0 Z " fill="#2F3945" transform="translate(32,30)"/>
<path d="M0 0 C1.10907715 0.51498047 2.2181543 1.02996094 3.36083984 1.56054688 C7.31098131 3.39942269 11.21785567 5.32186007 15.125 7.25 C17.7723776 8.54904393 20.42125042 9.84502026 23.0703125 11.140625 C23.71824768 11.45817749 24.36618286 11.77572998 25.03375244 12.10290527 C31.97808854 15.49718628 38.984089 18.7568552 46 22 C46 22.66 46 23.32 46 24 C42.14063688 26.86909931 38.78339688 28.34927819 34 29 C26.75709599 27.34701437 20.1167732 23.23513108 13.625 19.75 C10.92111794 18.33666182 8.21163887 16.93635665 5.49252319 15.55255127 C3.80852252 14.69164626 2.13389153 13.81209054 0.47061157 12.9118042 C-2.89174027 11.16093958 -5.21308211 10.00138864 -9.04370117 9.99462891 C-12.93900058 11.31933309 -16.54343157 13.00303303 -20.21484375 14.8515625 C-21.80375882 15.62817246 -23.39296044 16.40419637 -24.98242188 17.1796875 C-27.46550945 18.401692 -29.94557403 19.629039 -32.4206543 20.8671875 C-34.82379406 22.06529946 -37.23694101 23.24091397 -39.65234375 24.4140625 C-40.38484848 24.78794098 -41.11735321 25.16181946 -41.87205505 25.54702759 C-47.4097279 28.21136498 -51.28742965 28.26371442 -57.21484375 26.24609375 C-58.80989583 25.49739583 -60.40494792 24.74869792 -62 24 C-62 23.34 -62 22.68 -62 22 C-56.82716627 19.48877323 -51.65417944 16.97800891 -46.46533203 14.5 C-45.54042465 14.05823425 -45.54042465 14.05823425 -44.59683228 13.60754395 C-43.3237811 12.99954522 -42.05064742 12.39171924 -40.7774353 11.78405762 C-37.00284685 9.97707315 -33.24995896 8.13292112 -29.51235962 6.25067139 C-26.64366401 4.81260606 -23.75734984 3.41044936 -20.875 2 C-19.81684082 1.45375977 -18.75868164 0.90751953 -17.66845703 0.34472656 C-10.56558315 -3.0765649 -6.98889297 -3.57878821 0 0 Z " fill="#06BC64" transform="translate(134,33)"/>
<path d="M0 0 C0 0.66 0 1.32 0 2 C0.5775 2.144375 1.155 2.28875 1.75 2.4375 C3.83333333 2.95833333 5.91666667 3.47916667 8 4 C8 4.66 8 5.32 8 6 C8.7425 5.95875 9.485 5.9175 10.25 5.875 C13.20864669 6.00948394 14.5194982 6.43802065 17 8 C18.30078125 9.875 18.30078125 9.875 19.3125 12 C19.65925781 12.70125 20.00601563 13.4025 20.36328125 14.125 C20.67845703 15.053125 20.67845703 15.053125 21 16 C20.67 16.66 20.34 17.32 20 18 C13.51118841 16.97045996 6.4941027 15.82960234 1 12 C0.25390625 9.8671875 0.25390625 9.8671875 0 8 C-0.78375 7.896875 -1.5675 7.79375 -2.375 7.6875 C-5 7 -5 7 -7 4 C-3.375 0 -3.375 0 0 0 Z " fill="#02BD61" transform="translate(135,35)"/>
<path d="M0 0 C3.52055917 0.59084404 6.43361222 1.5155542 9.64453125 3.06640625 C10.48564453 3.46923828 11.32675781 3.87207031 12.19335938 4.28710938 C13.05767578 4.70798828 13.92199219 5.12886719 14.8125 5.5625 C15.69615234 5.98724609 16.57980469 6.41199219 17.49023438 6.84960938 C19.66264337 7.89471424 21.83239957 8.94496762 24 10 C24 10.33 24 10.66 24 11 C22.35333797 10.8864371 20.70763918 10.75882619 19.0625 10.625 C18.14597656 10.55539063 17.22945312 10.48578125 16.28515625 10.4140625 C15.15400391 10.20910156 15.15400391 10.20910156 14 10 C13.67 9.34 13.34 8.68 13 8 C12.01 7.67 11.02 7.34 10 7 C9.67 8.98 9.34 10.96 9 13 C12.465 14.485 12.465 14.485 16 16 C16 16.66 16 17.32 16 18 C10.76727367 16.36041242 5.84803364 14.61047965 1 12 C1.61875 11.87625 2.2375 11.7525 2.875 11.625 C5.19120832 11.12802644 5.19120832 11.12802644 7 9 C6.505 8.21625 6.01 7.4325 5.5 6.625 C4 4 4 4 4 2 C2.68 1.67 1.36 1.34 0 1 C0 0.67 0 0.34 0 0 Z " fill="#1BB56D" transform="translate(148,41)"/>
<path d="M0 0 C0.66 0.33 1.32 0.66 2 1 C-1.86764554 3.54159564 -5.60968212 5.94595032 -9.9375 7.625 C-10.948125 8.07875 -11.95875 8.5325 -13 9 C-13.33 9.99 -13.66 10.98 -14 12 C-11.69 12.33 -9.38 12.66 -7 13 C-7 12.67 -7 12.34 -7 12 C-5.02 12 -3.04 12 -1 12 C-4.46606672 15.18878138 -7.31324529 15.92316796 -12 16 C-15.14559065 14.92809491 -18.06430201 13.55106039 -21 12 C-21 11.34 -21 10.68 -21 10 C-17.54781943 8.29969216 -14.08736011 6.61696948 -10.625 4.9375 C-9.64015625 4.45216797 -8.6553125 3.96683594 -7.640625 3.46679688 C-6.69960937 3.01240234 -5.75859375 2.55800781 -4.7890625 2.08984375 C-3.91975098 1.66566162 -3.05043945 1.24147949 -2.15478516 0.80444336 C-1.0881665 0.4062439 -1.0881665 0.4062439 0 0 Z " fill="#21B170" transform="translate(93,45)"/>
<path d="M0 0 C1.32 0.33 2.64 0.66 4 1 C4 1.66 4 2.32 4 3 C5.65 3 7.3 3 9 3 C8.814375 3.61875 8.62875 4.2375 8.4375 4.875 C7.76313824 7.04160178 7.76313824 7.04160178 9 9 C8.67 9.66 8.34 10.32 8 11 C7.34 11 6.68 11 6 11 C5.67 10.34 5.34 9.68 5 9 C3.02111039 8.27306096 1.02045442 7.60183749 -1 7 C-1 3 -1 3 0 0 Z " fill="#03BE62" transform="translate(158,48)"/>
<path d="M0 0 C8.1850719 1.84824204 15.59288801 6.15420217 23 10 C23 10.33 23 10.66 23 11 C21.35 11 19.7 11 18 11 C18 10.34 18 9.68 18 9 C16.8553125 9.061875 16.8553125 9.061875 15.6875 9.125 C13 9 13 9 10 7 C10 6.34 10 5.68 10 5 C5.38 4.34 0.76 3.68 -4 3 C-2.68 2.01 -1.36 1.02 0 0 Z " fill="#23B16F" transform="translate(125,30)"/>
<path d="M0 0 C1.65 0.33 3.3 0.66 5 1 C5 1.66 5 2.32 5 3 C5.639375 3.268125 6.27875 3.53625 6.9375 3.8125 C9 5 9 5 10 8 C0.40546697 5.10933941 0.40546697 5.10933941 -3 2 C-2.01 2 -1.02 2 0 2 C0 1.34 0 0.68 0 0 Z " fill="#1BB66D" transform="translate(139,44)"/>
<path d="M0 0 C3.79620155 1.26540052 4.48678188 2.78218431 6.6875 6.0625 C7.31011719 6.98160156 7.93273437 7.90070313 8.57421875 8.84765625 C9.04472656 9.55792969 9.51523438 10.26820313 10 11 C9.67 11.66 9.34 12.32 9 13 C7.68 13 6.36 13 5 13 C5.103125 12.29875 5.20625 11.5975 5.3125 10.875 C4.85991027 6.71117452 2.75904615 5.10392692 0 2 C0 1.34 0 0.68 0 0 Z " fill="#2C333C" transform="translate(110,121)"/>
<path d="M0 0 C0 0.66 0 1.32 0 2 C-4.61012242 4.95047835 -7.36529617 6.5497272 -13 6 C-9.40464172 2.97989905 -4.81374718 0 0 0 Z " fill="#1AB26D" transform="translate(121,33)"/>
<path d="M0 0 C2.00720923 0.28674418 4.0085944 0.61866701 6 1 C-0.36363636 6 -0.36363636 6 -5 6 C-5 5.01 -5 4.02 -5 3 C-4.360625 2.690625 -3.72125 2.38125 -3.0625 2.0625 C-1.06389179 1.1654837 -1.06389179 1.1654837 0 0 Z " fill="#1EB36B" transform="translate(99,50)"/>
<path d="M0 0 C0.99 0.33 1.98 0.66 3 1 C-0.96 3.64 -4.92 6.28 -9 9 C-9 8.01 -9 7.02 -9 6 C-6.75 4.5 -6.75 4.5 -4 3 C-3.29875 2.4225 -2.5975 1.845 -1.875 1.25 C-0.946875 0.63125 -0.946875 0.63125 0 0 Z " fill="#2B323C" transform="translate(159,140)"/>
<path d="M0 0 C2.5 1.375 2.5 1.375 5 3 C5 3.66 5 4.32 5 5 C1.37 5 -2.26 5 -6 5 C-2 3 -2 3 0 3 C0 2.01 0 1.02 0 0 Z " fill="#2C323C" transform="translate(107,94)"/>
<path d="M0 0 C1.2065625 0.0309375 1.2065625 0.0309375 2.4375 0.0625 C-0.40157682 2.37582186 -2.98081508 4.16707877 -6.5625 5.0625 C-8.875 3.6875 -8.875 3.6875 -10.5625 2.0625 C-9.428125 1.918125 -8.29375 1.77375 -7.125 1.625 C-3.80350664 1.10055368 -3.09809271 0.07556324 0 0 Z " fill="#27AF6F" transform="translate(174.5625,56.9375)"/>
<path d="M0 0 C2.97 0.495 2.97 0.495 6 1 C3.77174356 3.22825644 2.34238372 3.69239369 -0.625 4.625 C-1.44226563 4.88539062 -2.25953125 5.14578125 -3.1015625 5.4140625 C-3.72804688 5.60742188 -4.35453125 5.80078125 -5 6 C-4.34 5.01 -3.68 4.02 -3 3 C-2.01 3 -1.02 3 0 3 C0 2.01 0 1.02 0 0 Z " fill="#1FB26F" transform="translate(112,44)"/>
<path d="M0 0 C3.8063457 0.67170806 7.35206816 1.72746564 11 3 C11 3.66 11 4.32 11 5 C9.53932801 4.54917531 8.08151968 4.08906463 6.625 3.625 C5.81289062 3.36976562 5.00078125 3.11453125 4.1640625 2.8515625 C2 2 2 2 0 0 Z " fill="#2BB172" transform="translate(153,54)"/>
<path d="M0 0 C0.66 0.33 1.32 0.66 2 1 C1.67 1.99 1.34 2.98 1 4 C-1.64 4 -4.28 4 -7 4 C-4.61426621 2.10786631 -2.92824652 0.97608217 0 0 Z " fill="#20AF6C" transform="translate(102,41)"/>
</svg>
