<?xml version="1.0" encoding="UTF-8"?>
<svg version="1.1" xmlns="http://www.w3.org/2000/svg" width="275" height="46">
<path d="M0 0 C1.98 0 3.96 0 6 0 C6.99 1.98 7.98 3.96 9 6 C9.33 4.02 9.66 2.04 10 0 C11.98 0 13.96 0 16 0 C16 7.92 16 15.84 16 24 C14.35 24 12.7 24 11 24 C9.68 21.69 8.36 19.38 7 17 C6.67 19.31 6.34 21.62 6 24 C4.02 24 2.04 24 0 24 C0 16.08 0 8.16 0 0 Z " fill="#25A36B" transform="translate(231,10)"/>
<path d="M0 0 C2.31 0 4.62 0 7 0 C7 6.27 7 12.54 7 19 C7.99 19 8.98 19 10 19 C9.91621094 17.71222656 9.83242188 16.42445312 9.74609375 15.09765625 C9.64295379 13.41928773 9.54010416 11.74090136 9.4375 10.0625 C9.38142578 9.21236328 9.32535156 8.36222656 9.26757812 7.48632812 C9.19506836 6.27299805 9.19506836 6.27299805 9.12109375 5.03515625 C9.0739624 4.2862915 9.02683105 3.53742676 8.97827148 2.76586914 C9 1 9 1 10 0 C11.99958364 -0.04080783 14.00045254 -0.04254356 16 0 C16.05802698 3.43742918 16.09360486 6.87473253 16.125 10.3125 C16.15013672 11.77719727 16.15013672 11.77719727 16.17578125 13.27148438 C16.18222656 14.20927734 16.18867187 15.14707031 16.1953125 16.11328125 C16.20578613 16.97735596 16.21625977 17.84143066 16.22705078 18.73168945 C16 21 16 21 14 24 C11.46875 24.328125 11.46875 24.328125 8.5 24.25 C7.03046875 24.22679687 7.03046875 24.22679687 5.53125 24.203125 C3 24 3 24 1 23 C0.03911617 20.11734851 -0.11670941 18.32337729 -0.09765625 15.33203125 C-0.09443359 14.43935547 -0.09121094 13.54667969 -0.08789062 12.62695312 C-0.07951172 11.69818359 -0.07113281 10.76941406 -0.0625 9.8125 C-0.05798828 8.87212891 -0.05347656 7.93175781 -0.04882812 6.96289062 C-0.03704626 4.64186288 -0.02059558 2.32096356 0 0 Z " fill="#1CAD78" transform="translate(50,10)"/>
<path d="M0 0 C2.12472576 -0.05386629 4.24983652 -0.09273071 6.375 -0.125 C7.55835938 -0.14820313 8.74171875 -0.17140625 9.9609375 -0.1953125 C13 0 13 0 15 2 C15.22705078 4.24658203 15.22705078 4.24658203 15.1953125 7.0078125 C15.18564453 8.48701172 15.18564453 8.48701172 15.17578125 9.99609375 C15.15902344 11.02863281 15.14226562 12.06117187 15.125 13.125 C15.11597656 14.16527344 15.10695312 15.20554687 15.09765625 16.27734375 C15.07403747 18.85179092 15.04110149 21.42578212 15 24 C13.35 24.33 11.7 24.66 10 25 C8.23537317 21.91190305 8 20.76687864 8 17 C7.34 17 6.68 17 6 17 C6 19.31 6 21.62 6 24 C4.34385343 24.38218767 2.67542976 24.71395102 1 25 C0 24 0 24 -0.11352539 21.68334961 C-0.10828857 20.68311768 -0.10305176 19.68288574 -0.09765625 18.65234375 C-0.09443359 17.57275391 -0.09121094 16.49316406 -0.08789062 15.38085938 C-0.07951172 14.24455078 -0.07113281 13.10824219 -0.0625 11.9375 C-0.05798828 10.79732422 -0.05347656 9.65714844 -0.04882812 8.48242188 C-0.03699747 5.65489649 -0.0205141 2.8274736 0 0 Z M6 5 C6 7.31 6 9.62 6 12 C6.99 12 7.98 12 9 12 C9 9.69 9 7.38 9 5 C8.01 5 7.02 5 6 5 Z " fill="#08B868" transform="translate(156,10)"/>
<path d="M0 0 C2.31 0 4.62 0 7 0 C7.33 1.32 7.66 2.64 8 4 C8.66 2.68 9.32 1.36 10 0 C12.31 0 14.62 0 17 0 C15.97026844 2.7723542 14.98381034 5.02254988 13.25 7.4375 C11.68166035 9.98508808 11.68166035 9.98508808 12.625 12.9375 C13.5792241 15.06281732 14.58312502 17.16625004 15.625 19.25 C17 22 17 22 17 24 C14.1875 24.25 14.1875 24.25 11 24 C9.125 22 9.125 22 8 20 C7.67 21.32 7.34 22.64 7 24 C4.69 24 2.38 24 0 24 C0 16.08 0 8.16 0 0 Z " fill="#21A56C" transform="translate(103,10)"/>
<path d="M0 0 C9.9609375 -0.1953125 9.9609375 -0.1953125 13 0 C15.44986932 2.44986932 15.25631311 3.137078 15.265625 6.5 C15.26820313 7.386875 15.27078125 8.27375 15.2734375 9.1875 C15.26570312 10.115625 15.25796875 11.04375 15.25 12 C15.25773438 12.928125 15.26546875 13.85625 15.2734375 14.8125 C15.27085937 15.699375 15.26828125 16.58625 15.265625 17.5 C15.26336914 18.3146875 15.26111328 19.129375 15.25878906 19.96875 C15 22 15 22 13 24 C8.65604929 24.27917421 4.35649033 24.08542138 0 24 C0 16.08 0 8.16 0 0 Z M6 5 C6 9.62 6 14.24 6 19 C6.99 19 7.98 19 9 19 C9 14.38 9 9.76 9 5 C8.01 5 7.02 5 6 5 Z " fill="#14B167" transform="translate(199,10)"/>
<path d="M0 0 C1.95766281 -0.08082094 3.91626728 -0.13910778 5.875 -0.1875 C7.51082031 -0.23970703 7.51082031 -0.23970703 9.1796875 -0.29296875 C10.11039063 -0.19628906 11.04109375 -0.09960938 12 0 C14.1519437 3.22791555 14.20086443 4.28400809 14 8 C11.33333333 8 8.66666667 8 6 8 C8.64 9.32 11.28 10.64 14 12 C14.25 20.625 14.25 20.625 12 24 C9.25 24.3984375 9.25 24.3984375 6 24.375 C4.39125 24.38660156 4.39125 24.38660156 2.75 24.3984375 C1.8425 24.26695313 0.935 24.13546875 0 24 C-2.1519437 20.77208445 -2.20086443 19.71599191 -2 16 C-0.02 16 1.96 16 4 16 C4.33 16.99 4.66 17.98 5 19 C5.66 19 6.32 19 7 19 C7.33 17.68 7.66 16.36 8 15 C4.7 14.01 1.4 13.02 -2 12 C-2.26785714 3.96428571 -2.26785714 3.96428571 0 0 Z " fill="#0AB96C" transform="translate(11,10)"/>
<path d="M0 0 C0.9796875 0.00515625 1.959375 0.0103125 2.96875 0.015625 C3.9484375 0.01046875 4.928125 0.0053125 5.9375 0 C8.46875 0.265625 8.46875 0.265625 10.46875 2.265625 C10.72753906 4.296875 10.72753906 4.296875 10.734375 6.765625 C10.73695312 7.6525 10.73953125 8.539375 10.7421875 9.453125 C10.73445313 10.38125 10.72671875 11.309375 10.71875 12.265625 C10.72648437 13.19375 10.73421875 14.121875 10.7421875 15.078125 C10.73960938 15.965 10.73703125 16.851875 10.734375 17.765625 C10.73211914 18.5803125 10.72986328 19.395 10.72753906 20.234375 C10.46875 22.265625 10.46875 22.265625 8.46875 24.265625 C5.9375 24.53125 5.9375 24.53125 2.96875 24.515625 C1.9890625 24.52078125 1.009375 24.5259375 0 24.53125 C-2.53125 24.265625 -2.53125 24.265625 -4.53125 22.265625 C-4.79003906 20.234375 -4.79003906 20.234375 -4.796875 17.765625 C-4.79945312 16.87875 -4.80203125 15.991875 -4.8046875 15.078125 C-4.79308594 13.6859375 -4.79308594 13.6859375 -4.78125 12.265625 C-4.78898437 11.3375 -4.79671875 10.409375 -4.8046875 9.453125 C-4.80210938 8.56625 -4.79953125 7.679375 -4.796875 6.765625 C-4.79461914 5.9509375 -4.79236328 5.13625 -4.79003906 4.296875 C-4.37539281 1.04229313 -3.16466181 0.33209414 0 0 Z M1.46875 5.265625 C1.46875 9.885625 1.46875 14.505625 1.46875 19.265625 C2.45875 18.935625 3.44875 18.605625 4.46875 18.265625 C4.46875 17.605625 4.46875 16.945625 4.46875 16.265625 C4.46875 12.59895833 4.46875 8.93229167 4.46875 5.265625 C3.47875 5.265625 2.48875 5.265625 1.46875 5.265625 Z " fill="#07BB62" transform="translate(34.53125,9.734375)"/>
<path d="M0 0 C1.77007714 -0.08114106 3.54122098 -0.13925505 5.3125 -0.1875 C6.29863281 -0.22230469 7.28476562 -0.25710938 8.30078125 -0.29296875 C11 0 11 0 12.84375 1.34375 C14.425736 3.60983805 14.21871147 5.3025585 14 8 C12.35 8.33 10.7 8.66 9 9 C8.67 7.68 8.34 6.36 8 5 C7.01 5 6.02 5 5 5 C5 6.98 5 8.96 5 11 C7.97 11 10.94 11 14 11 C14.05416188 12.60379341 14.09286638 14.20811406 14.125 15.8125 C14.14820313 16.70582031 14.17140625 17.59914063 14.1953125 18.51953125 C14 21 14 21 12 24 C9.46875 24.36328125 9.46875 24.36328125 6.5 24.3125 C5.5203125 24.30863281 4.540625 24.30476563 3.53125 24.30078125 C1 24 1 24 -1 22 C-1.56441927 19.07649685 -1.60586363 16.096069 -1.75 13.125 C-1.80542969 12.30902344 -1.86085937 11.49304687 -1.91796875 10.65234375 C-1.96050781 9.86214844 -2.00304687 9.07195313 -2.046875 8.2578125 C-2.08651367 7.5373877 -2.12615234 6.81696289 -2.16699219 6.07470703 C-1.97223742 3.6550784 -1.20123963 2.08893337 0 0 Z M4 13 C4 14.65 4 16.3 4 18 C5.32 18.33 6.64 18.66 8 19 C8 18.01 8 17.02 8 16 C6.05990478 14.29467677 6.05990478 14.29467677 4 13 Z " fill="#239D5A" transform="translate(254,10)"/>
<path d="M0 0 C2.64 0 5.28 0 8 0 C8.84357963 3.059771 9.6730202 6.1232046 10.5 9.1875 C10.73847656 10.05181641 10.97695312 10.91613281 11.22265625 11.80664062 C11.44824219 12.64775391 11.67382812 13.48886719 11.90625 14.35546875 C12.11572266 15.12528076 12.32519531 15.89509277 12.54101562 16.68823242 C13.03538729 19.17823523 13.07833519 21.46781499 13 24 C11.35 24 9.7 24 8 24 C7.67 22.35 7.34 20.7 7 19 C5.35 19.33 3.7 19.66 2 20 C1.67 21.32 1.34 22.64 1 24 C-0.98 24 -2.96 24 -5 24 C-4.39496146 18.3444819 -3.37814297 12.99786009 -1.9375 7.5 C-1.75123047 6.77296875 -1.56496094 6.0459375 -1.37304688 5.296875 C-0.91973545 3.53012276 -0.4604998 1.76489225 0 0 Z M4 11 C3.67 12.32 3.34 13.64 3 15 C3.66 15 4.32 15 5 15 C4.67 13.68 4.34 12.36 4 11 Z " fill="#13B076" transform="translate(181,10)"/>
<path d="M0 0 C1.98 0 3.96 0 6 0 C6.99 2.64 7.98 5.28 9 8 C9.66 5.36 10.32 2.72 11 0 C12.98 0 14.96 0 17 0 C16.39496146 5.6555181 15.37814297 11.00213991 13.9375 16.5 C13.75123047 17.22703125 13.56496094 17.9540625 13.37304688 18.703125 C12.91973545 20.46987724 12.4604998 22.23510775 12 24 C9.69 24 7.38 24 5 24 C4.16114623 20.56382292 3.32987081 17.12585663 2.5 13.6875 C2.14228516 12.22280273 2.14228516 12.22280273 1.77734375 10.72851562 C1.55175781 9.79072266 1.32617188 8.85292969 1.09375 7.88671875 C0.88427734 7.02264404 0.67480469 6.15856934 0.45898438 5.26831055 C0 3 0 3 0 0 Z " fill="#26AE6C" transform="translate(70,10)"/>
<path d="M0 0 C4.95 0 9.9 0 15 0 C15 1.65 15 3.3 15 5 C13.68 5 12.36 5 11 5 C11 11.27 11 17.54 11 24 C9.02 24 7.04 24 5 24 C5 17.73 5 11.46 5 5 C3.35 4.67 1.7 4.34 0 4 C0 2.68 0 1.36 0 0 Z " fill="#2BA567" transform="translate(136,10)"/>
<path d="M0 0 C9.9609375 -0.1953125 9.9609375 -0.1953125 13 0 C15 2 15 2 15.22705078 4.24658203 C15.21134033 5.61339111 15.21134033 5.61339111 15.1953125 7.0078125 C15.18564453 8.48701172 15.18564453 8.48701172 15.17578125 9.99609375 C15.15902344 11.02863281 15.14226562 12.06117187 15.125 13.125 C15.11597656 14.16527344 15.10695312 15.20554687 15.09765625 16.27734375 C15.07403747 18.85179092 15.04110149 21.42578212 15 24 C13.35 24.33 11.7 24.66 10 25 C8.57055055 22.64561267 7.91338739 21.51967567 8.375 18.75 C8.684375 17.88375 8.684375 17.88375 9 17 C9.33 18.98 9.66 20.96 10 23 C10.99 23 11.98 23 13 23 C12.835 22.05125 12.67 21.1025 12.5 20.125 C11.81458208 15.4236123 11.91416559 10.73996714 12 6 C11.34 8.31 10.68 10.62 10 13 C8.35 13 6.7 13 5 13 C5 10.03 5 7.06 5 4 C6.32 3.34 7.64 2.68 9 2 C6.36 1.67 3.72 1.34 1 1 C1.08060591 4.62592996 1.19346817 8.25014402 1.3125 11.875 C1.33505859 12.90753906 1.35761719 13.94007812 1.38085938 15.00390625 C1.41630859 15.99003906 1.45175781 16.97617187 1.48828125 17.9921875 C1.51446533 18.90339355 1.54064941 19.81459961 1.56762695 20.75341797 C1.71031006 21.49479004 1.85299316 22.23616211 2 23 C2.99 23.66 3.98 24.32 5 25 C3.35 24.67 1.7 24.34 0 24 C0 16.08 0 8.16 0 0 Z M6 5 C6 7.31 6 9.62 6 12 C6.99 12 7.98 12 9 12 C9 9.69 9 7.38 9 5 C8.01 5 7.02 5 6 5 Z " fill="#24A46B" transform="translate(156,10)"/>
<path d="M0 0 C1.98 0 3.96 0 6 0 C6 7.92 6 15.84 6 24 C4.02 24 2.04 24 0 24 C-0.1958691 20.18788097 -0.38029565 16.37529466 -0.5625 12.5625 C-0.61857422 11.47388672 -0.67464844 10.38527344 -0.73242188 9.26367188 C-0.78076172 8.22919922 -0.82910156 7.19472656 -0.87890625 6.12890625 C-0.9260376 5.17056885 -0.97316895 4.21223145 -1.02172852 3.22485352 C-1 1 -1 1 0 0 Z " fill="#14AA6C" transform="translate(220,10)"/>
<path d="M0 0 C1.98 0 3.96 0 6 0 C6 7.92 6 15.84 6 24 C4.02 24 2.04 24 0 24 C0 16.08 0 8.16 0 0 Z " fill="#15B06B" transform="translate(92,10)"/>
<path d="M0 0 C1.77007714 -0.08114106 3.54122098 -0.13925505 5.3125 -0.1875 C6.29863281 -0.22230469 7.28476562 -0.25710938 8.30078125 -0.29296875 C11 0 11 0 12.875 1.375 C14 3 14 3 13.6875 5.1875 C13.3471875 6.0846875 13.3471875 6.0846875 13 7 C11.68 7 10.36 7 9 7 C9 6.01 9 5.02 9 4 C7.35 4 5.7 4 4 4 C4 9.94 4 15.88 4 22 C3.01 22 2.02 22 1 22 C0.67 18.37 0.34 14.74 0 11 C-0.66 11 -1.32 11 -2 11 C-2.16702456 6.65736138 -2.12999997 3.79039366 0 0 Z " fill="#09B977" transform="translate(254,10)"/>
<path d="M0 0 C1.65 0 3.3 0 5 0 C6.32286246 4.96073422 6.08893197 9.91111512 6 15 C4.68 15 3.36 15 2 15 C2 15.66 2 16.32 2 17 C3.98 16.67 5.96 16.34 8 16 C8.33 17.65 8.66 19.3 9 21 C8.01 21 7.02 21 6 21 C5.67 20.34 5.34 19.68 5 19 C2.36 19 -0.28 19 -3 19 C-3.33 19.66 -3.66 20.32 -4 21 C-3.85950482 19.52031676 -3.71245174 18.04125484 -3.5625 16.5625 C-3.48128906 15.73878906 -3.40007812 14.91507813 -3.31640625 14.06640625 C-3 12 -3 12 -2 11 C-1.60545777 9.15400312 -1.25823134 7.29774178 -0.9375 5.4375 C-0.76089844 4.42558594 -0.58429688 3.41367188 -0.40234375 2.37109375 C-0.20318359 1.19740234 -0.20318359 1.19740234 0 0 Z M2 10 C1.67 11.32 1.34 12.64 1 14 C1.66 14 2.32 14 3 14 C2.67 12.68 2.34 11.36 2 10 Z " fill="#0FB561" transform="translate(183,11)"/>
<path d="M0 0 C0.9796875 0.00515625 1.959375 0.0103125 2.96875 0.015625 C3.9484375 0.01046875 4.928125 0.0053125 5.9375 0 C8.46875 0.265625 8.46875 0.265625 10.46875 2.265625 C10.72753906 4.296875 10.72753906 4.296875 10.734375 6.765625 C10.73695312 7.6525 10.73953125 8.539375 10.7421875 9.453125 C10.73445313 10.38125 10.72671875 11.309375 10.71875 12.265625 C10.72648437 13.19375 10.73421875 14.121875 10.7421875 15.078125 C10.73960938 15.965 10.73703125 16.851875 10.734375 17.765625 C10.73211914 18.5803125 10.72986328 19.395 10.72753906 20.234375 C10.46875 22.265625 10.46875 22.265625 8.46875 24.265625 C5.9375 24.53125 5.9375 24.53125 2.96875 24.515625 C1.9890625 24.52078125 1.009375 24.5259375 0 24.53125 C-2.53125 24.265625 -2.53125 24.265625 -4.53125 22.265625 C-4.79003906 20.234375 -4.79003906 20.234375 -4.796875 17.765625 C-4.79945312 16.87875 -4.80203125 15.991875 -4.8046875 15.078125 C-4.79308594 13.6859375 -4.79308594 13.6859375 -4.78125 12.265625 C-4.78898437 11.3375 -4.79671875 10.409375 -4.8046875 9.453125 C-4.80210938 8.56625 -4.79953125 7.679375 -4.796875 6.765625 C-4.79461914 5.9509375 -4.79236328 5.13625 -4.79003906 4.296875 C-4.37539281 1.04229313 -3.16466181 0.33209414 0 0 Z M-2.53125 2.265625 C-2.63155595 5.23350093 -2.66996785 8.17299672 -2.65625 11.140625 C-2.66011719 11.96949219 -2.66398437 12.79835938 -2.66796875 13.65234375 C-2.66667969 14.45027344 -2.66539063 15.24820312 -2.6640625 16.0703125 C-2.66293457 16.80233887 -2.66180664 17.53436523 -2.66064453 18.28857422 C-2.60125204 20.47827813 -2.60125204 20.47827813 -1.53125 23.265625 C-0.05218108 23.29251716 1.42702483 23.31197121 2.90625 23.328125 C4.14181641 23.34552734 4.14181641 23.34552734 5.40234375 23.36328125 C7.46038938 23.49829848 7.46038938 23.49829848 8.46875 22.265625 C8.56755797 20.78909836 8.59954245 19.30795264 8.6015625 17.828125 C8.60285156 16.93351562 8.60414062 16.03890625 8.60546875 15.1171875 C8.60160156 14.17617188 8.59773438 13.23515625 8.59375 12.265625 C8.59761719 11.32460938 8.60148437 10.38359375 8.60546875 9.4140625 C8.60353516 8.07214844 8.60353516 8.07214844 8.6015625 6.703125 C8.60043457 5.87683594 8.59930664 5.05054688 8.59814453 4.19921875 C8.68139807 2.25883461 8.68139807 2.25883461 7.46875 1.265625 C5.97136876 1.1677193 4.46932108 1.13587636 2.96875 1.140625 C2.1540625 1.13804688 1.339375 1.13546875 0.5 1.1328125 C-1.52655377 1.0411072 -1.52655377 1.0411072 -2.53125 2.265625 Z " fill="#26A666" transform="translate(34.53125,9.734375)"/>
<path d="M0 0 C1.32 0 2.64 0 4 0 C4.47129376 6.75521059 3.37589829 13.66131614 1 20 C-0.984375 21.44921875 -0.984375 21.44921875 -3 22 C-5 21 -5 21 -5.8515625 18.49609375 C-6.23441406 16.98208984 -6.23441406 16.98208984 -6.625 15.4375 C-6.88539062 14.42558594 -7.14578125 13.41367187 -7.4140625 12.37109375 C-7.60742188 11.58863281 -7.80078125 10.80617188 -8 10 C-4.535 11.98 -4.535 11.98 -1 14 C-1.01160156 13.24074219 -1.02320312 12.48148438 -1.03515625 11.69921875 C-1.04417969 10.70535156 -1.05320312 9.71148437 -1.0625 8.6875 C-1.07410156 7.70136719 -1.08570312 6.71523438 -1.09765625 5.69921875 C-1 3 -1 3 0 0 Z " fill="#0FB477" transform="translate(82,11)"/>
<path d="M0 0 C1.32 0 2.64 0 4 0 C4.33 6.27 4.66 12.54 5 19 C8.00259517 19.33218192 8.00259517 19.33218192 9.6875 17.5 C10.120625 17.005 10.55375 16.51 11 16 C11 17.98 11 19.96 11 22 C9.54257537 22.08096803 8.08387193 22.13917774 6.625 22.1875 C5.81289063 22.22230469 5.00078125 22.25710937 4.1640625 22.29296875 C3.44992188 22.19628906 2.73578125 22.09960938 2 22 C-0.10209857 18.84685215 -0.2434761 18.13896919 -0.1953125 14.55078125 C-0.18886719 13.70322266 -0.18242188 12.85566406 -0.17578125 11.98242188 C-0.15902344 11.10134766 -0.14226563 10.22027344 -0.125 9.3125 C-0.11597656 8.41982422 -0.10695312 7.52714844 -0.09765625 6.60742188 C-0.07409748 4.40467686 -0.04120329 2.20247412 0 0 Z " fill="#08BA6A" transform="translate(52,11)"/>
<path d="M0 0 C1.95766281 -0.08082094 3.91626728 -0.13910778 5.875 -0.1875 C7.51082031 -0.23970703 7.51082031 -0.23970703 9.1796875 -0.29296875 C10.11039063 -0.19628906 11.04109375 -0.09960938 12 0 C14.1519437 3.22791555 14.20086443 4.28400809 14 8 C11.33333333 8 8.66666667 8 6 8 C5.01 8.495 5.01 8.495 4 9 C4.33 7.35 4.66 5.7 5 4 C6.32 4 7.64 4 9 4 C9 4.99 9 5.98 9 7 C9.99 7 10.98 7 12 7 C11.34 5.02 10.68 3.04 10 1 C5.545 1.495 5.545 1.495 1 2 C1 5.3 1 8.6 1 12 C3.64 12.33 6.28 12.66 9 13 C8.67 14.32 8.34 15.64 8 17 C8 16.34 8 15.68 8 15 C4.7 14.01 1.4 13.02 -2 12 C-2.26785714 3.96428571 -2.26785714 3.96428571 0 0 Z " fill="#45AC70" transform="translate(11,10)"/>
<path d="M0 0 C2.31 0 4.62 0 7 0 C7 5.94 7 11.88 7 18 C6.67 18 6.34 18 6 18 C6 12.39 6 6.78 6 1 C4.68 1 3.36 1 2 1 C2.13857841 4.12536637 2.28709569 7.25018217 2.4375 10.375 C2.47681641 11.26445312 2.51613281 12.15390625 2.55664062 13.0703125 C2.59853516 13.92109375 2.64042969 14.771875 2.68359375 15.6484375 C2.72025146 16.43395996 2.75690918 17.21948242 2.79467773 18.02880859 C2.890891 20.07523496 2.890891 20.07523496 4 22 C8.0100934 22.17864631 8.0100934 22.17864631 12 22 C12.66 21.34 13.32 20.68 14 20 C14 21.32 14 22.64 14 24 C12.20841511 24.02696365 10.41671527 24.04637917 8.625 24.0625 C7.62726562 24.07410156 6.62953125 24.08570312 5.6015625 24.09765625 C3 24 3 24 1 23 C0.03911617 20.11734851 -0.11670941 18.32337729 -0.09765625 15.33203125 C-0.09443359 14.43935547 -0.09121094 13.54667969 -0.08789062 12.62695312 C-0.07951172 11.69818359 -0.07113281 10.76941406 -0.0625 9.8125 C-0.05798828 8.87212891 -0.05347656 7.93175781 -0.04882812 6.96289062 C-0.03704626 4.64186288 -0.02059558 2.32096356 0 0 Z " fill="#359857" transform="translate(50,10)"/>
<path d="M0 0 C3.96 0 7.92 0 12 0 C12 0.99 12 1.98 12 3 C10.35 3.33 8.7 3.66 7 4 C7 9.94 7 15.88 7 22 C6.34 22 5.68 22 5 22 C5 15.73 5 9.46 5 3 C3.35 3 1.7 3 0 3 C0 2.01 0 1.02 0 0 Z " fill="#04BB63" transform="translate(138,11)"/>
<path d="M0 0 C0.33 0.66 0.66 1.32 1 2 C0.67 2.66 0.34 3.32 0 4 C1.98 3.67 3.96 3.34 6 3 C5.01 3.33 4.02 3.66 3 4 C3.14063135 6.29199177 3.28765943 8.58359186 3.4375 10.875 C3.51871094 12.15117187 3.59992187 13.42734375 3.68359375 14.7421875 C3.79206027 17.88300152 3.79206027 17.88300152 5 20 C3.68 19.67 2.36 19.34 1 19 C0.67 19.66 0.34 20.32 0 21 C-1.13945516 18.72108967 -1.12894214 17.43217896 -1.1328125 14.90234375 C-1.13410156 14.10119141 -1.13539062 13.30003906 -1.13671875 12.47460938 C-1.13285156 11.63736328 -1.12898438 10.80011719 -1.125 9.9375 C-1.12886719 9.09638672 -1.13273437 8.25527344 -1.13671875 7.38867188 C-1.12662682 1.12662682 -1.12662682 1.12662682 0 0 Z " fill="#0EAA61" transform="translate(33,11)"/>
<path d="M0 0 C3 1 3 1 5 4 C5.125 6.6875 5.125 6.6875 5 9 C4.34 9 3.68 9 3 9 C3 12.96 3 16.92 3 21 C2.01 21 1.02 21 0 21 C0 14.07 0 7.14 0 0 Z " fill="#01BE64" transform="translate(233,12)"/>
<path d="M0 0 C0.99 0.33 1.98 0.66 3 1 C2.02443826 6.8326138 1.00408302 12.41719729 -1 18 C-1 18.66 -1 19.32 -1 20 C-0.34 20 0.32 20 1 20 C1 21.32 1 22.64 1 24 C-0.98 24 -2.96 24 -5 24 C-4.39496146 18.3444819 -3.37814297 12.99786009 -1.9375 7.5 C-1.75123047 6.77296875 -1.56496094 6.0459375 -1.37304688 5.296875 C-0.91973545 3.53012276 -0.4604998 1.76489225 0 0 Z " fill="#2FA65C" transform="translate(181,10)"/>
<path d="M0 0 C0.33 0 0.66 0 1 0 C1.33 2.64 1.66 5.28 2 8 C2.66 8 3.32 8 4 8 C4.66 7.34 5.32 6.68 6 6 C6.33 8.64 6.66 11.28 7 14 C5.35 14.33 3.7 14.66 2 15 C1.67 17.31 1.34 19.62 1 22 C0.34 22 -0.32 22 -1 22 C-1.02726927 19.64575325 -1.04696719 17.29183038 -1.0625 14.9375 C-1.07990234 12.97103516 -1.07990234 12.97103516 -1.09765625 10.96484375 C-1.00452335 7.1836481 -0.61448726 3.72079293 0 0 Z " fill="#03BD65" transform="translate(107,11)"/>
<path d="M0 0 C1.65 0 3.3 0 5 0 C5.33 2.97 5.66 5.94 6 9 C4.02 9.99 4.02 9.99 2 11 C0.29078411 12.5412312 0.29078411 12.5412312 -1 14 C-2.15837573 10.52487282 -1.77265943 8.86329714 -1.0625 5.3125 C-0.86785156 4.31863281 -0.67320312 3.32476562 -0.47265625 2.30078125 C-0.31667969 1.54152344 -0.16070312 0.78226563 0 0 Z " fill="#07BB64" transform="translate(183,11)"/>
<path d="M0 0 C6.875 1.875 6.875 1.875 8 3 C8.16796875 4.9609375 8.16796875 4.9609375 8.1875 7.375 C8.20167969 8.16648437 8.21585938 8.95796875 8.23046875 9.7734375 C8 12 8 12 6 15 C3.25 15.3984375 3.25 15.3984375 0 15.375 C-1.60875 15.38660156 -1.60875 15.38660156 -3.25 15.3984375 C-4.1575 15.26695313 -5.065 15.13546875 -6 15 C-8.1519437 11.77208445 -8.20086443 10.71599191 -8 7 C-6.02 7 -4.04 7 -2 7 C-2 7.99 -2 8.98 -2 10 C-2.99 9.67 -3.98 9.34 -5 9 C-5 10.32 -5 11.64 -5 13 C-1.7 13 1.6 13 5 13 C6.4783226 10.04335481 6.06032783 7.25770263 6 4 C4.02 3.34 2.04 2.68 0 2 C0 1.34 0 0.68 0 0 Z " fill="#2AA565" transform="translate(17,19)"/>
<path d="M0 0 C1.65 0 3.3 0 5 0 C5 0.99 5 1.98 5 3 C6.32 3 7.64 3 9 3 C9.33 2.01 9.66 1.02 10 0 C9.67 1.65 9.34 3.3 9 5 C7.35 4.67 5.7 4.34 4 4 C4 3.01 4 2.02 4 1 C3.01 1 2.02 1 1 1 C1 2.98 1 4.96 1 7 C3.97 7 6.94 7 10 7 C10 10.3 10 13.6 10 17 C9.34 17 8.68 17 8 17 C8 14.03 8 11.06 8 8 C4.06924356 8.57452746 4.06924356 8.57452746 1 11 C-0.20272819 8.59454362 -0.10071472 7.05003047 -0.0625 4.375 C-0.05347656 3.55773437 -0.04445313 2.74046875 -0.03515625 1.8984375 C-0.02355469 1.27195312 -0.01195312 0.64546875 0 0 Z " fill="#209B73" transform="translate(258,14)"/>
<path d="M0 0 C1.46566406 -0.03867188 1.46566406 -0.03867188 2.9609375 -0.078125 C5.625 0.25 5.625 0.25 7.49609375 1.62890625 C8.625 3.25 8.625 3.25 8.3125 5.4375 C7.9721875 6.3346875 7.9721875 6.3346875 7.625 7.25 C6.305 7.25 4.985 7.25 3.625 7.25 C3.625 6.26 3.625 5.27 3.625 4.25 C2.635 3.92 1.645 3.59 0.625 3.25 C1.285 3.25 1.945 3.25 2.625 3.25 C2.625 2.59 2.625 1.93 2.625 1.25 C-0.29702417 1.10968434 -0.29702417 1.10968434 -3.375 2.25 C-4.84081614 4.78967412 -5.64032365 7.42085161 -6.375 10.25 C-6.705 10.25 -7.035 10.25 -7.375 10.25 C-7.23450482 8.77031676 -7.08745174 7.29125484 -6.9375 5.8125 C-6.85628906 4.98878906 -6.77507812 4.16507813 -6.69140625 3.31640625 C-6.06784504 -0.75598731 -3.65745574 0.05759773 0 0 Z " fill="#21B164" transform="translate(259.375,9.75)"/>
<path d="M0 0 C0.33 0 0.66 0 1 0 C1 6.6 1 13.2 1 20 C-2.3 20 -5.6 20 -9 20 C-8.505 18.515 -8.505 18.515 -8 17 C-5.83125748 17.50603992 -4.00032373 17.99983813 -2 19 C-1.93941406 17.71222656 -1.87882813 16.42445312 -1.81640625 15.09765625 C-1.73201753 13.41925841 -1.6473687 11.74087364 -1.5625 10.0625 C-1.50352539 8.78729492 -1.50352539 8.78729492 -1.44335938 7.48632812 C-1.40146484 6.67744141 -1.35957031 5.86855469 -1.31640625 5.03515625 C-1.26141968 3.91185913 -1.26141968 3.91185913 -1.20532227 2.76586914 C-1 1 -1 1 0 0 Z " fill="#04BA70" transform="translate(212,13)"/>
<path d="M0 0 C1.65 0 3.3 0 5 0 C6.59412284 3.18824568 6.10174735 6.62896662 6.0625 10.125 C6.05798828 10.87910156 6.05347656 11.63320313 6.04882812 12.41015625 C6.03703499 14.27347127 6.01909942 16.13674555 6 18 C4.02 17.34 2.04 16.68 0 16 C0 10.72 0 5.44 0 0 Z M1 1 C1 5.62 1 10.24 1 15 C1.99 15 2.98 15 4 15 C4 10.38 4 5.76 4 1 C3.01 1 2.02 1 1 1 Z " fill="#23A264" transform="translate(204,14)"/>
<path d="M0 0 C0.66 0.33 1.32 0.66 2 1 C2.34375 3.36328125 2.34375 3.36328125 2.5 6.3125 C2.7042375 10.13684713 3.19362936 12.64015062 5 16 C5.125 18.75 5.125 18.75 5 21 C6.65 21 8.3 21 10 21 C10 21.66 10 22.32 10 23 C7.69 23 5.38 23 3 23 C2.29806544 20.29468997 1.61323543 17.58686232 0.9375 14.875 C0.73833984 14.11445313 0.53917969 13.35390625 0.33398438 12.5703125 C-0.78085522 8.03271975 -1.17773803 4.63688054 0 0 Z " fill="#1EA55B" transform="translate(72,11)"/>
<path d="M0 0 C2.04242247 3.38505078 2.29778231 6.07528309 2.3125 10 C2.33763672 11.546875 2.33763672 11.546875 2.36328125 13.125 C1.96081368 16.31011968 1.13430263 17.65733538 -1 20 C-2.32 19.67 -3.64 19.34 -5 19 C-4.67 18.34 -4.34 17.68 -4 17 C-3.01 17.33 -2.02 17.66 -1 18 C-1.09539063 17.20335938 -1.19078125 16.40671875 -1.2890625 15.5859375 C-2.39015817 5.06151142 -2.39015817 5.06151142 0 0 Z " fill="#1BB455" transform="translate(61,11)"/>
<path d="M0 0 C1.65 0 3.3 0 5 0 C5.02688151 1.64574566 5.04634123 3.29161413 5.0625 4.9375 C5.07410156 5.85402344 5.08570313 6.77054688 5.09765625 7.71484375 C5 10 5 10 4 11 C2.00041636 11.04080783 -0.00045254 11.04254356 -2 11 C-2 10.34 -2 9.68 -2 9 C-1.01 8.67 -0.02 8.34 1 8 C1.33 6.35 1.66 4.7 2 3 C1.34 3 0.68 3 0 3 C0 2.01 0 1.02 0 0 Z " fill="#08BA65" transform="translate(261,22)"/>
<path d="M0 0 C0.99 0.99 1.98 1.98 3 3 C3.433125 2.505 3.86625 2.01 4.3125 1.5 C6 0 6 0 9 0 C8.67 1.65 8.34 3.3 8 5 C7.01 5.33 6.02 5.66 5 6 C4.01 7.485 4.01 7.485 3 9 C2.01 8.67 1.02 8.34 0 8 C0 5.36 0 2.72 0 0 Z " fill="#19B564" transform="translate(108,11)"/>
<path d="M0 0 C0.66 0 1.32 0 2 0 C1.85856168 2.7294586 1.71200471 5.45848123 1.5625 8.1875 C1.52318359 8.95642578 1.48386719 9.72535156 1.44335938 10.51757812 C1.22492966 14.43251075 0.91307892 18.17120688 0 22 C-0.33 22 -0.66 22 -1 22 C-1.02887814 18.52085059 -1.04675687 15.04173169 -1.0625 11.5625 C-1.07087891 10.56927734 -1.07925781 9.57605469 -1.08789062 8.55273438 C-1.09111328 7.60849609 -1.09433594 6.66425781 -1.09765625 5.69140625 C-1.10289307 4.81685791 -1.10812988 3.94230957 -1.11352539 3.04125977 C-1 1 -1 1 0 0 Z " fill="#1AAF55" transform="translate(105,11)"/>
<path d="M0 0 C0.33 0 0.66 0 1 0 C1 6.27 1 12.54 1 19 C0.34 19.33 -0.32 19.66 -1 20 C-1.99 17.03 -2.98 14.06 -4 11 C-3.01 10.67 -2.02 10.34 -1 10 C-0.67 6.7 -0.34 3.4 0 0 Z " fill="#03BC60" transform="translate(244,12)"/>
<path d="M0 0 C0.33 0 0.66 0 1 0 C1 1.98 1 3.96 1 6 C0.34 6 -0.32 6 -1 6 C-1.33 6.99 -1.66 7.98 -2 9 C-4.97 8.505 -4.97 8.505 -8 8 C-8 6.68 -8 5.36 -8 4 C-5.03 4.495 -5.03 4.495 -2 5 C-2 4.34 -2 3.68 -2 3 C-1.34 3 -0.68 3 0 3 C0 2.01 0 1.02 0 0 Z " fill="#12BA5F" transform="translate(20,24)"/>
<path d="M0 0 C0.66 0.33 1.32 0.66 2 1 C2 6.61 2 12.22 2 18 C1.34 18 0.68 18 0 18 C-2.0263374 11.40660984 -2.0263374 6.59339016 0 0 Z " fill="#03BC63" transform="translate(167,15)"/>
<path d="M0 0 C1.98 0 3.96 0 6 0 C6 0.66 6 1.32 6 2 C5.21625 2.165 4.4325 2.33 3.625 2.5 C0.8906529 3.70396899 0.8906529 3.70396899 0.22265625 5.9140625 C-0.26413052 7.92516699 -0.63853255 9.962638 -1 12 C-1.33 11.34 -1.66 10.68 -2 10 C-2.66 9.67 -3.32 9.34 -4 9 C-2.68 6.03 -1.36 3.06 0 0 Z " fill="#0ABA5F" transform="translate(256,11)"/>
<path d="M0 0 C0.66 0.33 1.32 0.66 2 1 C2 5.62 2 10.24 2 15 C0.68 15.33 -0.64 15.66 -2 16 C-1.34 10.72 -0.68 5.44 0 0 Z " fill="#3DBD69" transform="translate(39,14)"/>
<path d="M0 0 C0.33 1.32 0.66 2.64 1 4 C2.32 4 3.64 4 5 4 C5 4.99 5 5.98 5 7 C4.01 7 3.02 7 2 7 C2.515625 7.928125 3.03125 8.85625 3.5625 9.8125 C5 13 5 13 4 16 C3.32845067 14.71086513 2.66291141 13.41859796 2 12.125 C1.62875 11.40570313 1.2575 10.68640625 0.875 9.9453125 C0 8 0 8 0 6 C-0.66 5.67 -1.32 5.34 -2 5 C-1.34 5 -0.68 5 0 5 C0 3.35 0 1.7 0 0 Z " fill="#0FB96B" transform="translate(238,16)"/>
<path d="M0 0 C0.66 0 1.32 0 2 0 C2.33 7.59 2.66 15.18 3 23 C2.34 23 1.68 23 1 23 C0.93941406 21.74703125 0.87882813 20.4940625 0.81640625 19.203125 C0.73197744 17.55207276 0.64733061 15.90103165 0.5625 14.25 C0.52318359 13.425 0.48386719 12.6 0.44335938 11.75 C0.40146484 10.95078125 0.35957031 10.1515625 0.31640625 9.328125 C0.27974854 8.5949707 0.24309082 7.86181641 0.20532227 7.10644531 C0.05302417 4.96229046 0.05302417 4.96229046 -0.58227539 2.79199219 C-0.72012451 2.20063477 -0.85797363 1.60927734 -1 1 C-0.67 0.67 -0.34 0.34 0 0 Z " fill="#19B955" transform="translate(220,10)"/>
<path d="M0 0 C0.99 0 1.98 0 3 0 C2.67 2.97 2.34 5.94 2 9 C1.34 9 0.68 9 0 9 C-0.33 9.66 -0.66 10.32 -1 11 C-1.125 3.375 -1.125 3.375 0 0 Z " fill="#0BB861" transform="translate(82,11)"/>
<path d="M0 0 C1.485 0.99 1.485 0.99 3 2 C3 2.99 3 3.98 3 5 C5.33075929 4.04134491 5.33075929 4.04134491 7 1 C7.66 2.98 8.32 4.96 9 7 C6.1875 7.25 6.1875 7.25 3 7 C1.125 5.1875 1.125 5.1875 0 3 C0 2.01 0 1.02 0 0 Z " fill="#28A36B" transform="translate(111,27)"/>
<path d="M0 0 C0.66 0.33 1.32 0.66 2 1 C1.67 4.3 1.34 7.6 1 11 C0.67 10.34 0.34 9.68 0 9 C-1.32 9 -2.64 9 -4 9 C-3.67 7.68 -3.34 6.36 -3 5 C-2.34 5 -1.68 5 -1 5 C-0.67 3.35 -0.34 1.7 0 0 Z " fill="#1CA864" transform="translate(243,11)"/>
<path d="M0 0 C1.32 0.66 2.64 1.32 4 2 C4 3.32 4 4.64 4 6 C2.02 6 0.04 6 -2 6 C-2 4.68 -2 3.36 -2 2 C-1.34 2 -0.68 2 0 2 C0 1.34 0 0.68 0 0 Z " fill="#1AA466" transform="translate(178,28)"/>
<path d="M0 0 C0.33 0.66 0.66 1.32 1 2 C1.66 2 2.32 2 3 2 C3 3.65 3 5.3 3 7 C1.68 7.33 0.36 7.66 -1 8 C-1 8.66 -1 9.32 -1 10 C-1.99 9.67 -2.98 9.34 -4 9 C-3.34 9 -2.68 9 -2 9 C-2.33 7.68 -2.66 6.36 -3 5 C-1.35 5.33 0.3 5.66 2 6 C2 5.01 2 4.02 2 3 C1.34 3 0.68 3 0 3 C0 2.01 0 1.02 0 0 Z " fill="#18A75B" transform="translate(260,23)"/>
<path d="M0 0 C1.32 0.33 2.64 0.66 4 1 C4.33 3.97 4.66 6.94 5 10 C3 6 3 6 3 4 C2.01 4 1.02 4 0 4 C0 2.68 0 1.36 0 0 Z " fill="#0FB565" transform="translate(162,23)"/>
<path d="M0 0 C2.97 1.98 2.97 1.98 6 4 C5.34 6.31 4.68 8.62 4 11 C3.67 11 3.34 11 3 11 C2.01 7.37 1.02 3.74 0 0 Z " fill="#04BC5F" transform="translate(74,21)"/>
<path d="M0 0 C-0.49831724 3.68754757 -1.10067643 5.60490662 -4 8 C-5.03864166 4.88407501 -5.09036928 3.9737344 -4 1 C-2 0 -2 0 0 0 Z " fill="#1DBD7A" transform="translate(186,17)"/>
<path d="M0 0 C1.85776765 3.13498292 2.20140476 5.37471432 2 9 C0.35 9 -1.3 9 -3 9 C-3.33 7.68 -3.66 6.36 -4 5 C-2.515 5.99 -2.515 5.99 -1 7 C-0.67 4.69 -0.34 2.38 0 0 Z " fill="#209C6F" transform="translate(192,25)"/>
<path d="M0 0 C0.66 0.66 1.32 1.32 2 2 C3.91006306 2.3176246 3.91006306 2.3176246 6 2.25 C6.70125 2.25515625 7.4025 2.2603125 8.125 2.265625 C10.2435669 2.15705515 10.2435669 2.15705515 12 0 C12 1.32 12 2.64 12 4 C8.37 4 4.74 4 1 4 C0.67 2.68 0.34 1.36 0 0 Z " fill="#1C9E64" transform="translate(52,30)"/>
<path d="M0 0 C0.33 0 0.66 0 1 0 C1 3.3 1 6.6 1 10 C0.01 10 -0.98 10 -2 10 C-2.22036864 6.14354879 -1.60355101 3.50776784 0 0 Z " fill="#0AB564" transform="translate(235,23)"/>
<path d="M0 0 C6.875 1.875 6.875 1.875 8 3 C8.07179964 4.51928038 8.08392007 6.04167482 8.0625 7.5625 C8.05347656 8.38878906 8.04445313 9.21507812 8.03515625 10.06640625 C8.02355469 10.70449219 8.01195312 11.34257812 8 12 C7.67 12 7.34 12 7 12 C6.67 9.36 6.34 6.72 6 4 C4.02 3.34 2.04 2.68 0 2 C0 1.34 0 0.68 0 0 Z " fill="#349F72" transform="translate(17,19)"/>
<path d="M0 0 C0.33 0 0.66 0 1 0 C1 1.65 1 3.3 1 5 C3.64 5 6.28 5 9 5 C9 5.33 9 5.66 9 6 C8.05125 6.12375 7.1025 6.2475 6.125 6.375 C2.91332809 6.71687177 2.91332809 6.71687177 1 9 C-0.4783226 6.04335481 -0.06032783 3.25770263 0 0 Z " fill="#409D73" transform="translate(258,16)"/>
<path d="M0 0 C0.99 0.495 0.99 0.495 2 1 C2.75 3.9375 2.75 3.9375 3 7 C2.34 7.66 1.68 8.32 1 9 C0 8 0 8 -0.09765625 6.15234375 C-0.06510417 4.1015625 -0.03255208 2.05078125 0 0 Z " fill="#14B67A" transform="translate(108,11)"/>
<path d="M0 0 C2.64 0 5.28 0 8 0 C4.93882432 2.62386487 4.26826873 3 0 3 C0 2.01 0 1.02 0 0 Z " fill="#0EB85C" transform="translate(138,11)"/>
</svg>
